<?xml version="1.0" standalone="no"?>
<!DOCTYPE svg PUBLIC "-//W3C//DTD SVG 20010904//EN"
 "http://www.w3.org/TR/2001/REC-SVG-20010904/DTD/svg10.dtd">
<svg version="1.0" xmlns="http://www.w3.org/2000/svg"
 width="1000.000000pt" height="1000.000000pt" viewBox="0 0 1000.000000 1000.000000"
 preserveAspectRatio="xMidYMid meet">
<metadata>
Created by potrace 1.11, written by Peter Selinger 2001-2013
</metadata>
<g transform="translate(0.000000,1000.000000) scale(0.100000,-0.100000)"
fill="#000000" stroke="none">
<path d="M1050 8285 l0 -925 1503 0 c1156 0 1506 -3 1515 -12 9 -9 12 -752 12
-3280 l0 -3268 925 0 925 0 0 3264 c0 1795 3 3271 6 3280 6 15 148 16 1510 16
l1504 0 0 925 0 925 -1790 0 -1790 0 -2 -647 -3 -648 -362 -3 -363 -2 -2 647
-3 648 -1792 3 -1793 2 0 -925z m3024 349 c9 -24 7 -697 -2 -712 -7 -10 -260
-12 -1233 -10 l-1224 3 -3 355 c-1 195 0 361 3 367 3 10 256 13 1229 13 1107
0 1224 -2 1230 -16z m4316 -354 l0 -370 -1227 2 -1228 3 -3 355 c-1 195 0 361
3 367 3 10 256 13 1230 13 l1225 0 0 -370z m-3025 -3920 l0 -2995 -360 0 -360
0 -3 2985 c-1 1642 0 2991 3 2998 3 10 81 12 362 10 l358 -3 0 -2995z"/>
</g>
</svg>
